<svg xmlns="http://www.w3.org/2000/svg">
  <symbol viewBox="0 0 32 32" id="icon-contrast">
    <g fill="currentColor">
      <path d="M16 4a12 12 0 1 1 0 24 12 12 0 0 1 0-24Zm0-4a16 16 0 1 0 0 32 16 16 0 0 0 0-32Z"/>
      <path d="M16 24.29a8.52 8.52 0 0 0 0-17"/>
    </g>
  </symbol>
  <symbol viewBox="0 0 44 44" id="icon-crop">
    <path fill="currentColor" d="M32 28h4V12a4 4 0 0 0-4-4H16v4h16v16Zm-20 4V0H8v8H0v4h8v20a4 4 0 0 0 4 4h20v8h4v-8h8v-4H12Z"/>
  </symbol>
  <symbol viewBox="0 0 48 43" id="icon-fill">
    <g fill="currentColor">
      <path d="M33.12 17.88 15.24 0l-2.83 2.83 4.76 4.76L6.88 17.88a3 3 0 0 0 0 4.24l11 11a3 3 0 0 0 4.24 0l11-11a3 3 0 0 0 0-4.24ZM10.41 20 20 10.42 29.59 20H10.41ZM38 23s-4 4.33-4 7a4 4 0 1 0 8 0c0-2.67-4-7-4-7ZM48 40H0v3h48v-3Z"/>
    </g>
  </symbol>
  <symbol viewBox="0 0 22 41" id="icon-arrow">
    <path fill="currentColor" d="m2.04 20.5 19.7-19.09A.82.82 0 0 0 22 .83a.8.8 0 0 0-.25-.59.86.86 0 0 0-.61-.24.88.88 0 0 0-.6.24L.24 19.91a.83.83 0 0 0-.25.59.81.81 0 0 0 .25.59l20.28 19.67a.9.9 0 0 0 1.09.1c.14-.1.25-.22.31-.38a.8.8 0 0 0-.18-.9L2.05 20.5Z"/>
  </symbol>
</svg>
