<svg xmlns="http://www.w3.org/2000/svg">
  <symbol viewBox="0 0 32 32" id="icon-contrast">
    <g fill="currentColor">
      <path d="M16 4a12 12 0 1 1 0 24 12 12 0 0 1 0-24Zm0-4a16 16 0 1 0 0 32 16 16 0 0 0 0-32Z"/>
      <path d="M16 24.29a8.52 8.52 0 0 0 0-17"/>
    </g>
  </symbol>
  <symbol viewBox="0 0 44 44" id="icon-crop">
    <path fill="currentColor" d="M32 28h4V12a4 4 0 0 0-4-4H16v4h16v16Zm-20 4V0H8v8H0v4h8v20a4 4 0 0 0 4 4h20v8h4v-8h8v-4H12Z"/>
  </symbol>
  <symbol viewBox="0 0 48 43" id="icon-fill">
    <g fill="currentColor">
      <path d="M33.12 17.88 15.24 0l-2.83 2.83 4.76 4.76L6.88 17.88a3 3 0 0 0 0 4.24l11 11a3 3 0 0 0 4.24 0l11-11a3 3 0 0 0 0-4.24ZM10.41 20 20 10.42 29.59 20H10.41ZM38 23s-4 4.33-4 7a4 4 0 1 0 8 0c0-2.67-4-7-4-7ZM48 40H0v3h48v-3Z"/>
    </g>
  </symbol>
  <symbol viewBox="0 0 22 41" id="icon-arrow">
    <path fill="currentColor" d="m2.04 20.5 19.7-19.09A.82.82 0 0 0 22 .83a.8.8 0 0 0-.25-.59.86.86 0 0 0-.61-.24.88.88 0 0 0-.6.24L.24 19.91a.83.83 0 0 0-.25.59.81.81 0 0 0 .25.59l20.28 19.67a.9.9 0 0 0 1.09.1c.14-.1.25-.22.31-.38a.8.8 0 0 0-.18-.9L2.05 20.5Z"/>
  </symbol>
  <symbol viewBox="0 0 50 24" id="icon-open-menu">
    <path fill="currentColor" d="M1.14 0C.99 0 .84.02.7.07S.43.2.33.3A.88.88 0 0 0 0 1v2c0 .27.12.52.33.7.22.2.5.3.8.3h47.73c.15 0 .3-.02.44-.07s.27-.12.37-.22A.88.88 0 0 0 50 3V1a.94.94 0 0 0-.33-.7c-.22-.2-.5-.3-.8-.3H1.13Zm0 10c-.15 0-.3.02-.44.07s-.27.12-.37.22A.88.88 0 0 0 0 11v2c0 .27.12.52.33.7.22.2.5.3.8.3h47.73c.15 0 .3-.02.44-.07s.27-.12.37-.22A.88.88 0 0 0 50 13v-2a.94.94 0 0 0-.33-.7c-.22-.2-.5-.3-.8-.3H1.13Zm0 10c-.15 0-.3.02-.44.07s-.27.12-.37.22A.88.88 0 0 0 0 21v2c0 .27.12.52.33.7.22.2.5.3.8.3h47.73c.15 0 .3-.02.44-.07s.27-.12.37-.22A.88.88 0 0 0 50 23v-2a.94.94 0 0 0-.33-.7c-.22-.2-.5-.3-.8-.3H1.13Z"/>
  </symbol>
  <symbol viewBox="0 0 23 23" id="icon-close-menu">
    <path fill="currentColor" d="M20.85 0 0 20.85 2.15 23 23 2.15 20.85 0Z"/>
    <path fill="currentColor" d="M2.15 0 0 2.15 20.85 23 23 20.85 2.15 0Z"/>
  </symbol>
</svg>
